<?xml version="1.0" encoding="utf-8"?>
<!-- Generator: Adobe Illustrator 24.2.3, SVG Export Plug-In . SVG Version: 6.00 Build 0)  -->
<svg version="1.1" id="Capa_1" xmlns="http://www.w3.org/2000/svg" xmlns:xlink="http://www.w3.org/1999/xlink" x="0px" y="0px"
	 viewBox="0 0 467 95" style="enable-background:new 0 0 467 95;" xml:space="preserve">
<style type="text/css">
	.st0{clip-path:url(#SVGID_2_);}
	.st1{clip-path:url(#SVGID_4_);}
	.st2{clip-path:url(#SVGID_6_);}
	.st3{clip-path:url(#SVGID_8_);}
</style>
<g>
	<g>
		<defs>
			<rect id="SVGID_1_" x="432.3" y="61" width="25.2" height="26.3"/>
		</defs>
		<clipPath id="SVGID_2_">
			<use xlink:href="#SVGID_1_"  style="overflow:visible;"/>
		</clipPath>
		<g class="st0">
			<path d="M457.9,61.8h-6.4c-0.1,0-0.3,0.1-0.3,0.3v18.1c0,0.2-0.1,0.3-0.3,0.3h-18.1c-0.2,0-0.3,0.1-0.3,0.3V87
				c0,0.2,0.1,0.3,0.3,0.3h25c0.2,0,0.3-0.1,0.3-0.3V62C458.2,61.9,458.1,61.8,457.9,61.8"/>
		</g>
	</g>
</g>
<g>
	<g>
		<defs>
			<rect id="SVGID_3_" x="432.3" y="11.3" width="25.2" height="25.7"/>
		</defs>
		<clipPath id="SVGID_4_">
			<use xlink:href="#SVGID_3_"  style="overflow:visible;"/>
		</clipPath>
		<g class="st1">
			<path d="M457.9,11.3h-25c-0.2,0-0.3,0.1-0.3,0.3V18c0,0.1,0.1,0.3,0.3,0.3H451c0.2,0,0.3,0.1,0.3,0.3v18.1c0,0.2,0.1,0.3,0.3,0.3
				h6.4c0.2,0,0.3-0.1,0.3-0.3v-25C458.2,11.4,458.1,11.3,457.9,11.3"/>
		</g>
	</g>
</g>
<g>
	<g transform="translate(30.133095, 189.840713)">
		<g>
			<path d="M29.7-127.7H-3.8v-28.7h12v21.6h21.4v7.1H29.7z"/>
		</g>
	</g>
</g>
<g>
	<g transform="translate(58.220732, 189.840713)">
		<g>
			<path d="M17.6-127.7h-12v-28.7h12V-127.7z"/>
		</g>
	</g>
</g>
<g>
	<g transform="translate(72.032358, 189.840713)">
		<g>
			<path d="M52.7-127.7H38.4l-16.2-19.4v19.4h-12v-28.7h14.3l16.2,19.3v-19.3h12V-127.7z"/>
		</g>
	</g>
</g>
<g>
	<g transform="translate(108.718556, 189.840713)">
		<g>
			<path d="M69.5-127.7H53.9l-12.3-9.6l-7.1,4.9v4.7h-12v-28.7h12v13.3l19.3-13.3h15.8l-20.5,14L69.5-127.7z"/>
		</g>
	</g>
</g>
<g>
	<g transform="translate(146.63312, 189.840713)">
		<g>
			<path d="M47.1-127.7h-12v-28.7h12V-127.7z"/>
		</g>
	</g>
</g>
<g>
	<g transform="translate(160.444745, 189.840713)">
		<g>
			<path d="M82.2-127.7H67.9l-16.2-19.4v19.4h-12v-28.7H54l16.2,19.3v-19.3h12V-127.7z"/>
		</g>
	</g>
</g>
<g>
	<g transform="translate(197.130943, 189.840713)">
	</g>
</g>
<g>
	<g transform="translate(204.74082, 189.840713)">
		<g>
			<path d="M66.5-127.7h-12v-28.7H74c4.7,0,8.4,0.4,11.3,1.1c2.9,0.7,5,1.8,6.3,3.3s2,3.4,2,5.9c0,2.4-0.7,4.4-2,5.9
				s-3.4,2.6-6.3,3.3s-6.6,1-11.3,1h-7.5V-127.7z M66.5-143.1h6.9c1.9,0,3.4-0.1,4.5-0.2c1.1-0.2,1.9-0.4,2.5-0.7
				c0.5-0.3,0.9-0.6,1-1c0.2-0.4,0.2-0.8,0.2-1.2c0-0.5-0.1-0.9-0.2-1.3c-0.1-0.4-0.5-0.7-1-1s-1.3-0.5-2.5-0.7
				c-1.1-0.2-2.6-0.2-4.5-0.2h-6.9V-143.1z"/>
		</g>
	</g>
</g>
<g>
	<g transform="translate(237.682, 189.840713)">
		<g>
			<path d="M110.4-127.7H98.2l-2.7-4.7H77.4l-2.7,4.7H62.5l18.4-28.6H92L110.4-127.7z M91.4-139.5l-5-8.7l-5,8.7H91.4z"/>
		</g>
	</g>
</g>
<g>
	<g transform="translate(274.008685, 189.840713)">
		<g>
			<path d="M116.7-127.7h-11.4c-0.5-0.7-0.9-1.6-1.1-2.8c-0.2-0.9-0.5-1.7-0.9-2.6c-0.4-0.8-1-1.5-1.9-2.1s-2.3-0.9-4.1-0.9h-7.8
				v8.3h-12v-28.7h19.6c4.7,0,8.4,0.4,11.3,1.1c2.9,0.7,5,1.8,6.3,3.3s2,3.4,2,5.9c0,2-0.5,3.7-1.4,5.1c-0.9,1.4-2.3,2.4-4.3,3.3
				c1.9,0.8,3.1,1.7,3.7,2.8s0.9,2.3,1.1,3.6C115.9-130.2,116.2-129,116.7-127.7z M89.6-143.1h6.9c1.9,0,3.4-0.1,4.5-0.3
				s1.9-0.4,2.5-0.7c0.5-0.3,0.9-0.6,1-1c0.2-0.4,0.2-0.7,0.2-1.1c0-0.4-0.1-0.8-0.2-1.1c-0.1-0.4-0.5-0.7-1-1s-1.3-0.5-2.5-0.7
				c-1.1-0.2-2.6-0.3-4.5-0.3h-6.9V-143.1z"/>
		</g>
	</g>
</g>
<g>
	<g transform="translate(306.949865, 189.840713)">
		<g>
			<path d="M135.6-127.7H120l-12.3-9.6l-7.1,4.9v4.7h-12v-28.7h12v13.3l19.3-13.3h15.8l-20.5,14L135.6-127.7z"/>
		</g>
	</g>
</g>
<g>
	<g>
		<defs>
			<rect id="SVGID_5_" x="10.2" y="10.9" width="25.9" height="26.1"/>
		</defs>
		<clipPath id="SVGID_6_">
			<use xlink:href="#SVGID_5_"  style="overflow:visible;"/>
		</clipPath>
		<g class="st2">
			<path d="M9.7,36.4h6.4c0.1,0,0.3-0.1,0.3-0.3V18c0-0.2,0.1-0.3,0.3-0.3h18.1c0.2,0,0.3-0.1,0.3-0.3V11c0-0.1-0.1-0.3-0.3-0.3h-25
				c-0.2,0-0.3,0.1-0.3,0.3v25C9.5,36.3,9.6,36.4,9.7,36.4"/>
		</g>
	</g>
</g>
<g>
	<g>
		<defs>
			<rect id="SVGID_7_" x="10.2" y="61" width="26.2" height="25.9"/>
		</defs>
		<clipPath id="SVGID_8_">
			<use xlink:href="#SVGID_7_"  style="overflow:visible;"/>
		</clipPath>
		<g class="st3">
			<path d="M9.7,86.9h25c0.2,0,0.3-0.1,0.3-0.3v-6.4c0-0.2-0.1-0.3-0.3-0.3H16.6c-0.2,0-0.3-0.1-0.3-0.3v-18c0-0.2-0.1-0.3-0.3-0.3
				H9.7c-0.2,0-0.3,0.1-0.3,0.3v25C9.5,86.7,9.6,86.9,9.7,86.9"/>
		</g>
	</g>
</g>
</svg>
