<?xml version="1.0" encoding="utf-8"?>
<!-- Generator: Adobe Illustrator 24.2.3, SVG Export Plug-In . SVG Version: 6.00 Build 0)  -->
<svg version="1.1" id="Capa_1" xmlns="http://www.w3.org/2000/svg" xmlns:xlink="http://www.w3.org/1999/xlink" x="0px" y="0px"
	 viewBox="0 0 192.8 192.8" style="enable-background:new 0 0 192.8 192.8;" xml:space="preserve">
<style type="text/css">
	.st0{fill-rule:evenodd;clip-rule:evenodd;fill:#FFFFFF;}
	.st1{fill-rule:evenodd;clip-rule:evenodd;}
</style>
<g>
	<polygon class="st0" points="0,0 192.8,0 192.8,192.8 0,192.8 0,0 	"/>
	<path d="M16.2,166.3h160.4V26.4H16.2V166.3L16.2,166.3z M180.4,174.1H12.4H8.5v-3.9V22.6v-3.9h3.8h168.1h3.8v3.9v147.6v3.9H180.4
		L180.4,174.1z"/>
	<polygon class="st1" points="25.6,45.4 65.4,45.4 65.6,129.5 65.6,145.3 25.6,145.3 25.6,45.4 	"/>
	<polygon class="st1" points="136.7,143 164.8,143 164.8,44.8 136.7,44.8 136.7,143 	"/>
	<path class="st1" d="M132,45.5c0.1,3.8-0.3,6.8-0.2,10.6c-23.3,5.8-18.7,43.4-0.1,46.4c-0.2,3.6,0.3,7.3,0.1,10.9
		c-18.5,6-33.8-0.2-41.3-12.5c-10-16.4-6.2-44.8,10.6-52.2C110.8,44.3,123,45.6,132,45.5L132,45.5z"/>
	<polygon class="st1" points="69.4,145.1 108.1,145.1 108.1,129.6 69.4,129.6 69.4,145.1 	"/>
</g>
</svg>
